# AST/ASF file generated using VICON BodyLanguage
# -----------------------------------------------
:version 1.10
:name VICON
:units
  mass 1.0
  length 0.45
  angle deg
:documentation
   .ast/.asf automatically generated from VICON data using
   VICON BodyBuilder and BodyLanguage model FoxedUp or BRILLIANT.MOD
:root
   order TX TY TZ RX RY RZ
   axis XYZ
   position 0 0 0  
   orientation 0 0 0 
:bonedata
  begin
     id 1 
     name lhipjoint
     direction 0.537252 -0.787203 0.302774 
     length 2.29576 
     axis 0 0 0  XYZ
  end
  begin
     id 2 
     name lfemur
     direction 0.34202 -0.939693 0  
     length 7.31114  
     axis 0 0 20  XYZ
    dof rx ry rz
    limits (-160.0 20.0)
           (-70.0 70.0)
           (-60.0 70.0)
  end
  begin
     id 3 
     name ltibia
     direction 0.34202 -0.939693 0   
     length 8.36008   
     axis 0 0 20   XYZ
    dof rx
    limits (-10.0 170.0)
  end
  begin
     id 4 
     name lfoot
     direction 0.0969116 -0.266263 0.959016   
     length 2.16704   
     axis -90 7.62852e-016 20   XYZ
    dof rx rz
    limits (-45.0 90.0)
           (-70.0 20.0)
  end
  begin
     id 5 
     name ltoes
     direction 1.53563e-011 -4.21779e-011 1   
     length 1.08338   
     axis -90 7.62852e-016 20   XYZ
    dof rx
    limits (-90.0 20.0)
  end
  begin
     id 6 
     name rhipjoint
     direction -0.588228 -0.754791 0.290308   
     length 2.39434  
     axis 0 0 0  XYZ 
  end
  begin
     id 7 
     name rfemur
     direction -0.34202 -0.939693 0   
     length 7.45207   
     axis 0 0 -20   XYZ
    dof rx ry rz
    limits (-160.0 20.0)
           (-70.0 70.0)
           (-70.0 60.0)
  end
  begin
     id 8 
     name rtibia
     direction -0.34202 -0.939693 0   
     length 8.03565   
     axis 0 0 -20   XYZ
    dof rx
    limits (-10.0 170.0)
 end
 begin
     id 9 
     name rfoot
     direction -0.107009 -0.294004 0.949795   
     length 2.11509  
     axis -90 -7.62852e-016 -20   XYZ
    dof rx rz
    limits (-45.0 90.0)
           (-20.0 70.0)
  end
  begin
     id 10 
     name rtoes
     direction -1.53533e-011 -4.22004e-011 1   
     length 1.05493   
     axis -90 -7.62852e-016 -20   XYZ
    dof rx
    limits (-90.0 20.0)
  end
  begin
     id 11 
     name lowerback
     direction -0.0115208 0.997969 -0.0626515   
     length 2.03153   
     axis 0 0 0   XYZ
    dof rx ry rz
    limits (-20.0 45.0)
           (-30.0 30.0)
           (-30.0 30.0)
  end
  begin
     id 12 
     name upperback
     direction -0.00423475 0.999974 -0.00583614   
     length 2.03619   
     axis 0 0 0   XYZ
    dof rx ry rz
    limits (-20.0 45.0)
           (-30.0 30.0)
           (-30.0 30.0)
  end
  begin
     id 13 
     name thorax
     direction 0.00289429 0.999728 0.0231573   
     length 2.03921   
     axis 0 0 0   XYZ
    dof rx ry rz
    limits (-20.0 45.0)
           (-30.0 30.0)
           (-30.0 30.0)
  end
  begin
     id 14 
     name lowerneck
     direction 0.0188995 0.987777 0.154721   
     length 1.78836   
     axis 0 0 0   XYZ
    dof rx ry rz
    limits (-20.0 45.0)
           (-30.0 30.0)
           (-30.0 30.0)
  end
  begin
     id 15 
     name upperneck
     direction -0.00612612 0.992995 -0.118   
     length 1.81789   
     axis 0 0 0   XYZ
    dof rx ry rz
    limits (-20.0 45.0)
           (-30.0 30.0)
           (-30.0 30.0)
  end
  begin
     id 16
     name head
     direction -0.00420226 0.998397 -0.0564482  
     length 1.82234  
     axis 0 0 0   XYZ
    dof rx ry rz
    limits (-20.0 45.0)
           (-30.0 30.0)
           (-30.0 30.0)
  end
  begin
     id 17 
     name lclavicle
     direction 0.916488 0.396539 0.0529676  
     length 3.51732  
     axis 0 0 0   XYZ
    dof ry rz
    limits (-20.0 10.0)
           (0.0 20.0)
  end
  begin
     id 18 
     name lhumerus
     direction 1 -4.4896e-011 8.36962e-028   
     length 5.45077   
     axis 180 -30 -90   XYZ
    dof rx ry rz
    limits (-60.0 90.0)
           (-90.0 90.0)
           (-90.0 90.0)
  end
  begin
     id 19
     name lradius
     direction 1 -4.48962e-011 3.01407e-027   
     length 3.05488   
     axis 180 -30 -90   XYZ
    dof rx
    limits (-10.0 170.0)
  end
  begin
     id 20
     name lwrist
     direction 1 -4.49002e-011 4.72961e-027   
     length 1.52744   
     axis -2.72261e-015 90 90   XYZ
    dof ry
    limits (-180.0 0.0)
 end
  begin
     id 21 
     name lhand
     direction 1 -4.4899e-011 9.45681e-027   
     length 0.638818   
     axis -6.0311e-015 90 90   XYZ
    dof rx rz
    limits (-90.0 90.0)
           (-45.0 45.0)
  end
  begin
     id 22 
     name lfingers
     direction 1 -4.48871e-011 1.88632e-026   
     length 0.515032   
     axis -1.20625e-014 90 90   XYZ
    dof rx
    limits (0.0 90.0)
  end
  begin
     id 23
     name lthumb
     direction 0.707107 -6.34964e-011 0.707107   
     length 0.739485   
     axis -90 45 6.32835e-014   XYZ
    dof rx rz
    limits (-45.0 45.0)
           (-45.0 45.0)
  end
  begin
     id 24 
     name rclavicle
     direction -0.949427 0.303202 0.0815894   
     length 3.76167  
     axis 0 0 0   XYZ 
    dof ry rz
    limits (-10.0 20.0)
           (-20.0 0.0)
  end
  begin
     id 25 
     name rhumerus
     direction -1 -4.48971e-011 -6.43969e-018  
     length 4.88702   
     axis 180 30 90   XYZ
    dof rx ry rz
    limits (-90.0 60.0)
           (-90.0 90.0)
           (-90.0 90.0)
  end
  begin
     id 26 
     name rradius
     direction -1 -4.48987e-011 5.46662e-027   
     length 3.22603   
     axis 180 30 90   XYZ
    dof rx
    limits (-10.0 170.0)
  end
  begin
     id 27 
     name rwrist
     direction -1 -4.48956e-011 4.72476e-027   
     length 1.61302   
     axis -2.72261e-015 -90 -90   XYZ
    dof ry
    limits (-180.0 0.0)
  end
  begin
     id 28
     name rhand
     direction -1 -4.4889e-011 9.43571e-027   
     length 0.716293   
     axis -6.0311e-015 -90 -90   XYZ
    dof rx rz
    limits (-90.0 90.0)
           (-45.0 45.0)
  end
  begin
     id 29
     name rfingers
     direction -1 -4.48887e-011 1.88701e-026   
     length 0.577494   
     axis -1.20625e-014 -90 -90   XYZ
    dof rx
    limits (0.0 90.0)
  end
  begin
     id 30
     name rthumb
     direction -0.707107 -6.34825e-011 0.707107   
     length 0.829169   
     axis -90 -45 -6.32835e-014   XYZ
    dof rx rz
    limits (-45.0 45.0)
           (-45.0 45.0)
  end
:hierarchy
  begin
    root lhipjoint rhipjoint lowerback
    lhipjoint lfemur
    lfemur ltibia
    ltibia lfoot
    lfoot ltoes
    rhipjoint rfemur
    rfemur rtibia
    rtibia rfoot
    rfoot rtoes
    lowerback upperback
    upperback thorax
    thorax lowerneck lclavicle rclavicle
    lowerneck upperneck
    upperneck head
    lclavicle lhumerus
    lhumerus lradius
    lradius lwrist
    lwrist lhand lthumb
    lhand lfingers
    rclavicle rhumerus
    rhumerus rradius
    rradius rwrist
    rwrist rhand rthumb
    rhand rfingers
  end

#!OML:ASF F:\VICON\USERDATA\INSTALL\rory3\rory3.ASF
:FULLY-SPECIFIED
:DEGREES
562
root 1.25432 18.5396 0.291293 158.274 87.4402 145.268
lowerback -9.23476 -0.253505 -0.326616
upperback -3.51374 -0.181087 -0.647675
thorax 1.53448 -0.0433845 -0.502057
lowerneck -20.1853 -0.819342 2.07998
upperneck 18.8142 -1.77489 0.284065
head 9.23773 -0.616278 -0.481882
rclavicle 6.9462e-015 1.3828e-014
rhumerus -43.1571 -2.45116 -68.0127
rradius 68.4003
rwrist 25.458
rhand -21.6666 7.44315
rfingers 7.12502
rthumb 4.73072 -22.484
lclavicle 6.9462e-015 1.3828e-014
lhumerus -41.6295 -3.07464 64.8712
lradius 75.6106
lwrist -2.08096
lhand -16.0159 35.1374
lfingers 7.12502
lthumb 10.1848 64.8708
rfemur -6.46342 -8.47273 16.0242
rtibia -1.11319e-014
rfoot -5.34657 6.13794
rtoes -11.7147
lfemur -16.0162 7.54758 -19.1838
ltibia 16.3067
lfoot -12.5209 -5.76971
ltoes -26.2361
563
root 1.25501 18.5406 0.291832 157.709 87.4695 144.698
lowerback -9.22956 -0.232654 -0.338808
upperback -3.49973 -0.153136 -0.638497
thorax 1.54635 -0.0296003 -0.482844
lowerneck -20.2491 -0.832575 2.05327
upperneck 18.8156 -1.78202 0.259872
head 9.24942 -0.624508 -0.487282
rclavicle 5.12336e-015 -4.3919e-015
rhumerus -43.1429 -2.41354 -67.9914
rradius 68.364
rwrist 25.6557
rhand -21.9386 7.38271
rfingers 7.12502
rthumb 4.46809 -22.5502
lclavicle 5.12336e-015 -4.3919e-015
lhumerus -41.5628 -3.03056 64.8164
lradius 75.5294
lwrist -2.46205
lhand -16.3519 35.2244
lfingers 7.12502
lthumb 9.86063 64.9735
rfemur -6.46922 -8.43627 16.014
rtibia 1.11319e-014
rfoot -5.34148 6.09895
rtoes -11.8764
lfemur -16.002 7.54773 -19.1905
ltibia 16.2839
lfoot -12.558 -5.72107
ltoes -26.5478
564
root 1.25435 18.5413 0.291364 157.091 87.4925 144.071
lowerback -9.20314 -0.211295 -0.339523
upperback -3.50123 -0.125219 -0.634725
thorax 1.53045 -0.0157347 -0.475586
lowerneck -20.277 -0.841437 2.01988
upperneck 18.8166 -1.785 0.259272
head 9.25496 -0.628473 -0.482626
rclavicle -2.90596e-015 8.28994e-015
rhumerus -43.1476 -2.38176 -67.9791
rradius 68.3195
rwrist 25.7592
rhand -22.0647 7.39216
rfingers 7.12502
rthumb 4.34625 -22.5432
lclavicle -2.90596e-015 8.28994e-015
lhumerus -41.5552 -3.21129 64.9462
lradius 75.4713
lwrist -1.98914
lhand -15.9964 35.0504
lfingers 7.12502
lthumb 10.2036 64.783
rfemur -6.49517 -8.40482 15.999
rtibia -6.36111e-015
rfoot -5.30528 6.05231
rtoes -11.8295
lfemur -15.9846 7.48662 -19.1975
ltibia 16.2532
lfoot -12.6071 -5.61247
ltoes -26.9135
565
root 1.25428 18.5407 0.291119 154.298 87.4752 141.264
lowerback -9.18144 -0.200355 -0.457797
upperback -3.49325 -0.100743 -0.642666
thorax 1.52717 -0.00305389 -0.414724
lowerneck -20.3461 -0.857604 1.92032
upperneck 18.8165 -1.79175 0.313459
head 9.26868 -0.632746 -0.449005
rclavicle 3.24695e-015 -5.78339e-015
rhumerus -43.0989 -2.28964 -67.9505
rradius 68.2863
rwrist 25.703
rhand -22.0375 7.38182
rfingers 7.12502
rthumb 4.37251 -22.553
lclavicle 3.24695e-015 -5.78339e-015
lhumerus -41.5134 -3.4074 65.0674
lradius 75.365
lwrist -1.411
lhand -15.7806 35.0059
lfingers 7.12502
lthumb 10.4119 64.7282
rfemur -6.52266 -8.37252 15.8693
rtibia 8.74653e-015
rfoot -5.27913 6.05725
rtoes -11.64
lfemur -15.9898 7.39909 -19.3173
ltibia 16.2523
lfoot -12.6025 -5.50303
ltoes -26.8028
566
root 1.25535 18.5395 0.291496 153.518 87.484 140.512
lowerback -9.14418 -0.186001 -0.48787
upperback -3.47484 -0.0803125 -0.64252
thorax 1.52584 0.00686192 -0.395511
lowerneck -20.3459 -0.856352 1.87485
upperneck 18.7529 -1.78583 0.355854
head 9.24743 -0.629629 -0.425837
rclavicle -1.051e-015 1.93939e-014
rhumerus -43.0689 -2.22508 -67.9579
rradius 68.2662
rwrist 25.6687
rhand -22.0903 7.39572
rfingers 7.12502
rthumb 4.32161 -22.5402
lclavicle -1.051e-015 1.93939e-014
lhumerus -41.4417 -3.52281 65.0854
lradius 75.241
lwrist -1.30088
lhand -15.7887 34.8543
lfingers 7.12502
lthumb 10.404 64.5769
rfemur -6.49333 -8.34806 15.8401
rtibia 1.90833e-014
rfoot -5.29182 6.05284
rtoes -11.5484
lfemur -15.9725 7.39661 -19.332
ltibia 16.2697
lfoot -12.593 -5.5021
ltoes -26.5679
567
root 1.25542 18.5416 0.291201 155.654 87.4981 142.638
lowerback -9.12368 -0.195678 -0.372749
upperback -3.47294 -0.104045 -0.627242
thorax 1.51621 -0.00573265 -0.446857
lowerneck -20.3304 -0.840727 1.93248
upperneck 18.6872 -1.77175 0.312902
head 9.22092 -0.625129 -0.447797
rclavicle 5.10434e-015 8.15638e-015
rhumerus -43.063 -2.14078 -68.0098
rradius 68.2669
rwrist 25.5256
rhand -22.0876 7.3698
rfingers 7.12502
rthumb 4.32419 -22.566
lclavicle 5.10434e-015 8.15638e-015
lhumerus -41.4376 -3.56777 65.0786
lradius 75.1937
lwrist -1.34213
lhand -15.6822 34.8226
lfingers 7.12502
lthumb 10.5067 64.54
rfemur -6.49735 -8.37436 15.9417
rtibia -2.38542e-014
rfoot -5.27989 6.05336
rtoes -11.5309
lfemur -15.9772 7.44084 -19.2379
ltibia 16.2855
lfoot -12.5916 -5.58645
ltoes -26.6801
568
root 1.25536 18.5422 0.292393 154.688 87.5179 141.665
lowerback -9.09693 -0.185142 -0.399949
upperback -3.49093 -0.0873845 -0.635198
thorax 1.48303 0.00292775 -0.437997
lowerneck -20.2973 -0.84175 2.01813
upperneck 18.6567 -1.77348 0.203279
head 9.20231 -0.633061 -0.499516
rclavicle 2.23575e-015 9.93302e-015
rhumerus -43.1002 -2.07675 -68.038
rradius 68.2525
rwrist 25.4088
rhand -22.0787 7.55564
rfingers 7.12502
rthumb 4.33277 -22.38
lclavicle 2.23575e-015 9.93302e-015
lhumerus -41.5456 -3.66456 65.0876
lradius 75.2493
lwrist -1.37769
lhand -15.7645 34.8384
lfingers 7.12502
lthumb 10.4273 64.5598
rfemur -6.50246 -8.33904 15.9141
rtibia -7.15625e-015
rfoot -5.25861 6.07291
rtoes -11.1831
lfemur -15.9667 7.45171 -19.2585
ltibia 16.3213
lfoot -12.6505 -5.57242
ltoes -26.8286
569
root 1.25497 18.5426 0.291872 153.622 87.5323 140.565
lowerback -9.08743 -0.173659 -0.399495
upperback -3.5168 -0.0709481 -0.657593
thorax 1.45111 0.0114628 -0.459642
lowerneck -20.2559 -0.840351 2.00837
upperneck 18.6201 -1.77447 0.235913
head 9.18269 -0.631079 -0.48634
rclavicle -7.5842e-015 -2.77025e-014
rhumerus -43.1229 -2.01365 -68.0906
rradius 68.2168
rwrist 25.3051
rhand -22.0667 7.54322
rfingers 7.12502
rthumb 4.34435 -22.3922
lclavicle -7.5842e-015 -2.77025e-014
lhumerus -41.6122 -3.78319 65.0818
lradius 75.3075
lwrist -1.28145
lhand -15.7501 34.8736
lfingers 7.12502
lthumb 10.4413 64.5943
rfemur -6.54952 -8.30834 15.8787
rtibia -1.19271e-014
rfoot -5.26338 6.10011
rtoes -11.2571
lfemur -16.0073 7.38648 -19.2932
ltibia 16.337
lfoot -12.6302 -5.48711
ltoes -26.7212
570
root 1.25572 18.543 0.290464 151.173 87.5479 138.096
lowerback -9.10123 -0.157547 -0.443757
upperback -3.51029 -0.0451128 -0.681094
thorax 1.4656 0.0244796 -0.456406
lowerneck -20.2597 -0.832225 1.96388
upperneck 18.565 -1.76386 0.297736
head 9.16547 -0.623247 -0.456094
rclavicle -8.73565e-016 1.01256e-015
rhumerus -43.0469 -1.88011 -68.1429
rradius 68.0728
rwrist 25.1998
rhand -22.1437 7.5448
rfingers 7.12502
rthumb 4.27 -22.3921
lclavicle -8.73565e-016 1.01256e-015
lhumerus -41.6521 -3.89251 65.0949
lradius 75.3622
lwrist -1.16417
lhand -15.7551 34.8059
lfingers 7.12502
lthumb 10.4364 64.5268
rfemur -6.58239 -8.24951 15.7795
rtibia -1.19271e-014
rfoot -5.24874 6.12291
rtoes -11.9252
lfemur -16.0008 7.38182 -19.3903
ltibia 16.3015
lfoot -12.6809 -5.43382
ltoes -26.5893
571
root 1.25537 18.5401 0.291198 149.479 87.5755 136.41
lowerback -9.08261 -0.146208 -0.495094
upperback -3.48045 -0.0270969 -0.674967
thorax 1.48634 0.0331907 -0.419389
lowerneck -20.3491 -0.840584 1.93694
upperneck 18.5906 -1.77909 0.33658
head 9.19086 -0.627344 -0.441073
rclavicle -8.592e-016 -1.32813e-014
rhumerus -42.9591 -1.7776 -68.1905
rradius 67.9887
rwrist 25.0947
rhand -22.0963 7.5068
rfingers 7.12502
rthumb 4.31576 -22.4292
lclavicle -8.592e-016 -1.32813e-014
lhumerus -41.6524 -3.99803 65.1081
lradius 75.3784
lwrist -1.11732
lhand -15.7818 34.8868
lfingers 7.12502
lthumb 10.4106 64.6091
rfemur -6.59409 -8.18933 15.7284
rtibia -2.94201e-014
rfoot -5.21522 6.11479
rtoes -11.9218
lfemur -15.9644 7.47846 -19.4504
ltibia 16.2397
lfoot -12.6918 -5.47107
ltoes -26.5778
572
root 1.25473 18.5386 0.292297 150.461 87.6418 137.401
lowerback -9.02615 -0.126747 -0.413617
upperback -3.4939 -0.00916877 -0.665332
thorax 1.44139 0.0416833 -0.453372
lowerneck -20.3474 -0.85596 1.91827
upperneck 18.6022 -1.80971 0.404351
head 9.19535 -0.634771 -0.418845
rclavicle -5.73156e-015 -2.67117e-015
rhumerus -43.0158 -1.70115 -68.2685
rradius 67.9364
rwrist 24.982
rhand -22.2366 7.55152
rfingers 7.12502
rthumb 4.18027 -22.3872
lclavicle -5.73156e-015 -2.67117e-015
lhumerus -41.633 -4.04151 65.0822
lradius 75.285
lwrist -1.15225
lhand -15.9287 35.0346
lfingers 7.12502
lthumb 10.2689 64.7639
rfemur -6.59854 -8.14874 15.8134
rtibia 6.36111e-015
rfoot -5.22666 6.11669
rtoes -11.7597
lfemur -15.9316 7.48224 -19.3635
ltibia 16.1672
lfoot -12.6708 -5.41058
ltoes -26.7193
573
root 1.25298 18.5401 0.29313 150.744 87.6574 137.669
lowerback -8.96044 -0.140895 -0.369254
upperback -3.52261 -0.0315662 -0.682924
thorax 1.37539 0.0303915 -0.498613
lowerneck -20.2881 -0.83884 1.95709
upperneck 18.5363 -1.80751 0.456855
head 9.16233 -0.625966 -0.406131
rclavicle -8.55487e-016 -7.49325e-015
rhumerus -43.0272 -1.57628 -68.4277
rradius 67.8741
rwrist 24.7381
rhand -22.3622 7.39197
rfingers 7.12502
rthumb 4.05898 -22.5491
lclavicle -8.55487e-016 -7.49325e-015
lhumerus -41.6828 -4.06429 64.9833
lradius 75.3137
lwrist -1.09212
lhand -16.1471 35.2175
lfingers 7.12502
lthumb 10.0583 64.9571
rfemur -6.62015 -8.14145 15.8332
rtibia 2.62396e-014
rfoot -5.22921 6.15221
rtoes -11.8027
lfemur -15.9171 7.45714 -19.3294
ltibia 16.0942
lfoot -12.5852 -5.39402
ltoes -26.5616
574
root 1.2539 18.5412 0.29314 148.516 87.6447 135.416
lowerback -8.95756 -0.150056 -0.425391
upperback -3.52997 -0.0380237 -0.714483
thorax 1.3662 0.027547 -0.500241
lowerneck -20.3041 -0.816193 2.00256
upperneck 18.5354 -1.79273 0.466079
head 9.16479 -0.614647 -0.408481
rclavicle 1.6128e-015 1.0694e-014
rhumerus -42.9814 -1.4359 -68.5842
rradius 67.7307
rwrist 24.4552
rhand -22.6982 7.18909
rfingers 7.12502
rthumb 3.73451 -22.7579
lclavicle 1.6128e-015 1.0694e-014
lhumerus -41.7032 -4.02107 64.945
lradius 75.3415
lwrist -1.06725
lhand -16.2883 35.4475
lfingers 7.12502
lthumb 9.92202 65.1937
rfemur -6.64046 -8.11133 15.7312
rtibia -1.03368e-014
rfoot -5.18969 6.12834
rtoes -11.2859
lfemur -15.9199 7.52908 -19.4345
ltibia 16.0437
lfoot -12.5401 -5.42493
ltoes -26.6816
575
root 1.25525 18.5408 0.292932 146.995 87.6662 133.826
lowerback -9.01693 -0.129706 -0.458217
upperback -3.54288 -0.00651053 -0.723718
thorax 1.38573 0.0438992 -0.488234
lowerneck -20.3172 -0.832538 1.96251
upperneck 18.5301 -1.81404 0.512935
head 9.16603 -0.622135 -0.388738
rclavicle 1.04914e-015 -8.04263e-015
rhumerus -42.9744 -1.3008 -68.6965
rradius 67.6135
rwrist 24.1247
rhand -22.9572 7.14274
rfingers 7.12502
rthumb 3.4844 -22.8085
lclavicle 1.04914e-015 -8.04263e-015
lhumerus -41.6959 -3.984 64.9355
lradius 75.3927
lwrist -0.973348
lhand -16.1253 35.5882
lfingers 7.12502
lthumb 10.0792 65.3268
rfemur -6.72523 -8.06546 15.6869
rtibia -3.18055e-015
rfoot -5.16965 6.14453
rtoes -11.2373
lfemur -15.9801 7.53893 -19.4915
ltibia 16.0081
lfoot -12.521 -5.37186
ltoes -26.6857
576
root 1.25654 18.5421 0.293814 146.637 87.7038 133.437
lowerback -9.03479 -0.1256 -0.456389
upperback -3.54527 -0.000914472 -0.721687
thorax 1.39311 0.0467707 -0.486621
lowerneck -20.3468 -0.824614 1.98045
upperneck 18.5248 -1.81191 0.523065
head 9.16947 -0.618735 -0.388059
rclavicle -6.32345e-015 5.55976e-016
rhumerus -42.955 -1.09041 -68.9488
rradius 67.5112
rwrist 23.4449
rhand -23.4844 6.9374
rfingers 7.12502
rthumb 2.9753 -23.0216
lclavicle -6.32345e-015 5.55976e-016
lhumerus -41.7281 -3.95011 64.8718
lradius 75.4504
lwrist -0.81936
lhand -15.8479 35.3505
lfingers 7.12502
lthumb 10.3468 65.0759
rfemur -6.77161 -8.0265 15.7044
rtibia 1.35174e-014
rfoot -5.15246 6.14294
rtoes -11.4786
lfemur -15.9937 7.57206 -19.4837
ltibia 15.9699
lfoot -12.4949 -5.33533
ltoes -26.81
